<mxfile host="app.diagrams.net" agent="Mozilla/5.0 (Windows NT 10.0; Win64; x64) AppleWebKit/537.36 (KHTML, like Gecko) Chrome/134.0.0.0 Safari/537.36" version="26.0.4">
  <diagram name="Page-1" id="z-Vmv1gE01xSN_WO__-Q">
    <mxGraphModel dx="2391" dy="1114" grid="1" gridSize="10" guides="1" tooltips="1" connect="1" arrows="1" fold="1" page="1" pageScale="1" pageWidth="850" pageHeight="1100" math="0" shadow="0">
      <root>
        <mxCell id="0" />
        <mxCell id="1" parent="0" />
        <mxCell id="BYuKkz2npOJqfdhwUf7x-1" value="Admin" style="shape=umlActor;verticalLabelPosition=bottom;verticalAlign=top;html=1;outlineConnect=0;" vertex="1" parent="1">
          <mxGeometry x="150" y="220" width="30" height="60" as="geometry" />
        </mxCell>
        <mxCell id="BYuKkz2npOJqfdhwUf7x-2" value="" style="endArrow=classic;html=1;rounded=0;" edge="1" parent="1">
          <mxGeometry width="50" height="50" relative="1" as="geometry">
            <mxPoint x="200" y="260" as="sourcePoint" />
            <mxPoint x="340" y="260" as="targetPoint" />
          </mxGeometry>
        </mxCell>
        <mxCell id="BYuKkz2npOJqfdhwUf7x-4" value="Search/Show Users" style="ellipse;whiteSpace=wrap;html=1;" vertex="1" parent="1">
          <mxGeometry x="340" y="220" width="120" height="80" as="geometry" />
        </mxCell>
        <mxCell id="BYuKkz2npOJqfdhwUf7x-5" value="" style="endArrow=classic;html=1;rounded=0;entryX=-0.008;entryY=0.35;entryDx=0;entryDy=0;entryPerimeter=0;" edge="1" parent="1" target="BYuKkz2npOJqfdhwUf7x-6">
          <mxGeometry width="50" height="50" relative="1" as="geometry">
            <mxPoint x="200" y="260" as="sourcePoint" />
            <mxPoint x="330" y="320" as="targetPoint" />
          </mxGeometry>
        </mxCell>
        <mxCell id="BYuKkz2npOJqfdhwUf7x-6" value="Add super user" style="ellipse;whiteSpace=wrap;html=1;" vertex="1" parent="1">
          <mxGeometry x="340" y="300" width="120" height="80" as="geometry" />
        </mxCell>
        <mxCell id="BYuKkz2npOJqfdhwUf7x-7" value="" style="endArrow=classic;html=1;rounded=0;entryX=-0.008;entryY=0.35;entryDx=0;entryDy=0;entryPerimeter=0;" edge="1" parent="1" target="BYuKkz2npOJqfdhwUf7x-8">
          <mxGeometry width="50" height="50" relative="1" as="geometry">
            <mxPoint x="200" y="260" as="sourcePoint" />
            <mxPoint x="330" y="400" as="targetPoint" />
          </mxGeometry>
        </mxCell>
        <mxCell id="BYuKkz2npOJqfdhwUf7x-8" value="Modify delete user" style="ellipse;whiteSpace=wrap;html=1;" vertex="1" parent="1">
          <mxGeometry x="340" y="380" width="120" height="80" as="geometry" />
        </mxCell>
        <mxCell id="BYuKkz2npOJqfdhwUf7x-10" value="" style="rounded=0;whiteSpace=wrap;html=1;" vertex="1" parent="1">
          <mxGeometry x="310" y="470" width="280" height="430" as="geometry" />
        </mxCell>
        <mxCell id="BYuKkz2npOJqfdhwUf7x-11" value="Show achievement" style="ellipse;whiteSpace=wrap;html=1;" vertex="1" parent="1">
          <mxGeometry x="410" y="570" width="120" height="80" as="geometry" />
        </mxCell>
        <mxCell id="BYuKkz2npOJqfdhwUf7x-12" value="Achievement system" style="rounded=0;whiteSpace=wrap;html=1;" vertex="1" parent="1">
          <mxGeometry x="400" y="490" width="120" height="60" as="geometry" />
        </mxCell>
        <mxCell id="BYuKkz2npOJqfdhwUf7x-13" value="" style="shape=flexArrow;endArrow=classic;html=1;rounded=0;" edge="1" parent="1">
          <mxGeometry width="50" height="50" relative="1" as="geometry">
            <mxPoint x="380" y="690" as="sourcePoint" />
            <mxPoint x="430" y="640" as="targetPoint" />
          </mxGeometry>
        </mxCell>
        <mxCell id="BYuKkz2npOJqfdhwUf7x-14" value="" style="shape=flexArrow;endArrow=classic;html=1;rounded=0;entryX=1;entryY=1;entryDx=0;entryDy=0;" edge="1" parent="1" target="BYuKkz2npOJqfdhwUf7x-11">
          <mxGeometry width="50" height="50" relative="1" as="geometry">
            <mxPoint x="537.57" y="700" as="sourcePoint" />
            <mxPoint x="519.9964068711928" y="638.2842712474619" as="targetPoint" />
          </mxGeometry>
        </mxCell>
        <mxCell id="BYuKkz2npOJqfdhwUf7x-15" value="Show my achievements" style="ellipse;whiteSpace=wrap;html=1;" vertex="1" parent="1">
          <mxGeometry x="320" y="690" width="120" height="80" as="geometry" />
        </mxCell>
        <mxCell id="BYuKkz2npOJqfdhwUf7x-16" value="Show users achievements" style="ellipse;whiteSpace=wrap;html=1;" vertex="1" parent="1">
          <mxGeometry x="470" y="700" width="120" height="80" as="geometry" />
        </mxCell>
        <mxCell id="BYuKkz2npOJqfdhwUf7x-17" value="" style="endArrow=classic;html=1;rounded=0;entryX=0;entryY=0;entryDx=0;entryDy=0;" edge="1" parent="1" target="BYuKkz2npOJqfdhwUf7x-16">
          <mxGeometry width="50" height="50" relative="1" as="geometry">
            <mxPoint x="200" y="260" as="sourcePoint" />
            <mxPoint x="320" y="428" as="targetPoint" />
          </mxGeometry>
        </mxCell>
        <mxCell id="BYuKkz2npOJqfdhwUf7x-18" value="" style="rounded=0;whiteSpace=wrap;html=1;" vertex="1" parent="1">
          <mxGeometry x="800" y="460" width="280" height="610" as="geometry" />
        </mxCell>
        <mxCell id="BYuKkz2npOJqfdhwUf7x-19" value="Group system" style="rounded=0;whiteSpace=wrap;html=1;" vertex="1" parent="1">
          <mxGeometry x="880" y="480" width="120" height="60" as="geometry" />
        </mxCell>
        <mxCell id="BYuKkz2npOJqfdhwUf7x-20" value="Create group" style="ellipse;whiteSpace=wrap;html=1;" vertex="1" parent="1">
          <mxGeometry x="880" y="560" width="120" height="80" as="geometry" />
        </mxCell>
        <mxCell id="BYuKkz2npOJqfdhwUf7x-21" value="Delete group" style="ellipse;whiteSpace=wrap;html=1;" vertex="1" parent="1">
          <mxGeometry x="880" y="660" width="120" height="80" as="geometry" />
        </mxCell>
        <mxCell id="BYuKkz2npOJqfdhwUf7x-22" value="Moderate group" style="ellipse;whiteSpace=wrap;html=1;" vertex="1" parent="1">
          <mxGeometry x="880" y="770" width="120" height="80" as="geometry" />
        </mxCell>
        <mxCell id="BYuKkz2npOJqfdhwUf7x-23" value="" style="endArrow=classic;html=1;rounded=0;entryX=0.25;entryY=0;entryDx=0;entryDy=0;" edge="1" parent="1" target="BYuKkz2npOJqfdhwUf7x-18">
          <mxGeometry width="50" height="50" relative="1" as="geometry">
            <mxPoint x="200" y="260" as="sourcePoint" />
            <mxPoint x="289" y="428" as="targetPoint" />
          </mxGeometry>
        </mxCell>
        <mxCell id="BYuKkz2npOJqfdhwUf7x-24" value="User" style="shape=umlActor;verticalLabelPosition=bottom;verticalAlign=top;html=1;outlineConnect=0;" vertex="1" parent="1">
          <mxGeometry x="1430" y="560" width="30" height="60" as="geometry" />
        </mxCell>
        <mxCell id="BYuKkz2npOJqfdhwUf7x-26" value="Join group" style="ellipse;whiteSpace=wrap;html=1;" vertex="1" parent="1">
          <mxGeometry x="880" y="870" width="120" height="80" as="geometry" />
        </mxCell>
        <mxCell id="BYuKkz2npOJqfdhwUf7x-27" value="Comunicate group" style="ellipse;whiteSpace=wrap;html=1;" vertex="1" parent="1">
          <mxGeometry x="880" y="970" width="120" height="80" as="geometry" />
        </mxCell>
        <mxCell id="BYuKkz2npOJqfdhwUf7x-28" value="" style="endArrow=classic;html=1;rounded=0;entryX=0.933;entryY=0.3;entryDx=0;entryDy=0;entryPerimeter=0;" edge="1" parent="1" source="BYuKkz2npOJqfdhwUf7x-24" target="BYuKkz2npOJqfdhwUf7x-26">
          <mxGeometry width="50" height="50" relative="1" as="geometry">
            <mxPoint x="1370" y="625" as="sourcePoint" />
            <mxPoint x="1270" y="700" as="targetPoint" />
          </mxGeometry>
        </mxCell>
        <mxCell id="BYuKkz2npOJqfdhwUf7x-29" value="" style="endArrow=classic;html=1;rounded=0;entryX=1;entryY=0;entryDx=0;entryDy=0;" edge="1" parent="1" target="BYuKkz2npOJqfdhwUf7x-27">
          <mxGeometry width="50" height="50" relative="1" as="geometry">
            <mxPoint x="1430" y="600" as="sourcePoint" />
            <mxPoint x="1002" y="904" as="targetPoint" />
          </mxGeometry>
        </mxCell>
        <mxCell id="BYuKkz2npOJqfdhwUf7x-30" value="" style="rounded=0;whiteSpace=wrap;html=1;" vertex="1" parent="1">
          <mxGeometry x="1320" y="700" width="280" height="320" as="geometry" />
        </mxCell>
        <mxCell id="BYuKkz2npOJqfdhwUf7x-31" value="User management system" style="rounded=0;whiteSpace=wrap;html=1;" vertex="1" parent="1">
          <mxGeometry x="1400" y="730" width="120" height="60" as="geometry" />
        </mxCell>
        <mxCell id="BYuKkz2npOJqfdhwUf7x-32" value="Login" style="ellipse;whiteSpace=wrap;html=1;" vertex="1" parent="1">
          <mxGeometry x="1400" y="800" width="120" height="80" as="geometry" />
        </mxCell>
        <mxCell id="BYuKkz2npOJqfdhwUf7x-33" value="Register" style="ellipse;whiteSpace=wrap;html=1;" vertex="1" parent="1">
          <mxGeometry x="1400" y="890" width="120" height="80" as="geometry" />
        </mxCell>
        <mxCell id="BYuKkz2npOJqfdhwUf7x-34" value="" style="endArrow=classic;html=1;rounded=0;entryX=0.443;entryY=-0.012;entryDx=0;entryDy=0;entryPerimeter=0;" edge="1" parent="1" source="BYuKkz2npOJqfdhwUf7x-24" target="BYuKkz2npOJqfdhwUf7x-30">
          <mxGeometry width="50" height="50" relative="1" as="geometry">
            <mxPoint x="1440" y="610" as="sourcePoint" />
            <mxPoint x="992" y="992" as="targetPoint" />
          </mxGeometry>
        </mxCell>
        <mxCell id="BYuKkz2npOJqfdhwUf7x-35" value="" style="rounded=0;whiteSpace=wrap;html=1;" vertex="1" parent="1">
          <mxGeometry x="1290" y="40" width="320" height="470" as="geometry" />
        </mxCell>
        <mxCell id="BYuKkz2npOJqfdhwUf7x-36" value="Online Diary System" style="rounded=0;whiteSpace=wrap;html=1;" vertex="1" parent="1">
          <mxGeometry x="1395" y="50" width="120" height="60" as="geometry" />
        </mxCell>
        <mxCell id="BYuKkz2npOJqfdhwUf7x-37" value="CRUD Notebook" style="ellipse;whiteSpace=wrap;html=1;" vertex="1" parent="1">
          <mxGeometry x="1400" y="120" width="120" height="80" as="geometry" />
        </mxCell>
        <mxCell id="BYuKkz2npOJqfdhwUf7x-38" value="" style="shape=flexArrow;endArrow=classic;html=1;rounded=0;" edge="1" parent="1">
          <mxGeometry width="50" height="50" relative="1" as="geometry">
            <mxPoint x="1370" y="240" as="sourcePoint" />
            <mxPoint x="1420" y="190" as="targetPoint" />
          </mxGeometry>
        </mxCell>
        <mxCell id="BYuKkz2npOJqfdhwUf7x-41" value="" style="shape=flexArrow;endArrow=classic;html=1;rounded=0;" edge="1" parent="1">
          <mxGeometry width="50" height="50" relative="1" as="geometry">
            <mxPoint x="1550" y="235" as="sourcePoint" />
            <mxPoint x="1510" y="180" as="targetPoint" />
          </mxGeometry>
        </mxCell>
        <mxCell id="BYuKkz2npOJqfdhwUf7x-42" value="&amp;nbsp;MyNotebook" style="ellipse;whiteSpace=wrap;html=1;" vertex="1" parent="1">
          <mxGeometry x="1310" y="250" width="120" height="80" as="geometry" />
        </mxCell>
        <mxCell id="BYuKkz2npOJqfdhwUf7x-44" value="&amp;nbsp;SmartNotebook" style="ellipse;whiteSpace=wrap;html=1;" vertex="1" parent="1">
          <mxGeometry x="1490" y="250" width="120" height="80" as="geometry" />
        </mxCell>
        <mxCell id="BYuKkz2npOJqfdhwUf7x-47" value="Watch AI analysis" style="ellipse;whiteSpace=wrap;html=1;" vertex="1" parent="1">
          <mxGeometry x="1400" y="320" width="120" height="80" as="geometry" />
        </mxCell>
        <mxCell id="BYuKkz2npOJqfdhwUf7x-48" value="" style="endArrow=classic;html=1;rounded=0;entryX=0.5;entryY=1;entryDx=0;entryDy=0;exitX=0.5;exitY=0;exitDx=0;exitDy=0;exitPerimeter=0;" edge="1" parent="1" source="BYuKkz2npOJqfdhwUf7x-24" target="BYuKkz2npOJqfdhwUf7x-35">
          <mxGeometry width="50" height="50" relative="1" as="geometry">
            <mxPoint x="1440" y="550" as="sourcePoint" />
            <mxPoint x="1470" y="540" as="targetPoint" />
          </mxGeometry>
        </mxCell>
        <mxCell id="BYuKkz2npOJqfdhwUf7x-49" value="Filter/Order Notebooks" style="ellipse;whiteSpace=wrap;html=1;" vertex="1" parent="1">
          <mxGeometry x="1400" y="410" width="120" height="80" as="geometry" />
        </mxCell>
        <mxCell id="BYuKkz2npOJqfdhwUf7x-50" value="" style="endArrow=classic;html=1;rounded=0;entryX=1;entryY=0;entryDx=0;entryDy=0;" edge="1" parent="1" target="BYuKkz2npOJqfdhwUf7x-15">
          <mxGeometry width="50" height="50" relative="1" as="geometry">
            <mxPoint x="1430" y="600" as="sourcePoint" />
            <mxPoint x="1002" y="904" as="targetPoint" />
          </mxGeometry>
        </mxCell>
      </root>
    </mxGraphModel>
  </diagram>
</mxfile>
